<svg width="21" height="21" viewBox="0 0 21 21" fill="none" xmlns="http://www.w3.org/2000/svg">
<path d="M7.49965 10.4765C7.49965 7.28905 7.49965 4.10158 7.49965 0.914731C7.49965 0.270475 7.76758 0.000626099 8.40736 0.000626099C9.81399 0 11.22 0 12.626 0C13.2138 0 13.4993 0.286754 13.4993 0.878417C13.4993 7.29218 13.4993 13.7059 13.4993 20.1197C13.4993 20.7095 13.212 20.9987 12.626 20.9987C11.2044 20.9994 9.78207 20.9994 8.36041 20.9987C7.79012 20.9987 7.49965 20.7051 7.49902 20.1316C7.49965 16.9135 7.49965 13.6947 7.49965 10.4765Z" fill="#FF0000"/>
<path d="M14.9996 13.4762C14.9996 11.2811 14.9996 9.08602 14.9996 6.89092C14.9996 6.27922 15.277 6.00061 15.8842 5.99998C17.2983 5.99936 18.7125 5.99936 20.126 5.99998C20.7138 5.99998 20.9993 6.28673 20.9993 6.8784C20.9993 11.2924 20.9993 15.7058 20.9993 20.1198C20.9993 20.7096 20.712 20.9988 20.126 20.9994C18.7044 21.0001 17.2821 21.0001 15.8604 20.9994C15.2901 20.9994 14.9996 20.7058 14.999 20.1323C14.999 17.9134 14.9996 15.6951 14.9996 13.4762Z" fill="#FF0000"/>
<path d="M6.00005 16.5232C6.00005 17.7259 6.00068 18.9293 6.00005 20.132C5.99943 20.7055 5.70833 20.9992 5.13867 20.9992C3.70887 20.9998 2.2797 20.9998 0.849901 20.9992C0.29526 20.9985 0.0010372 20.7024 0.0010372 20.1433C-0.000214811 17.714 -0.000214811 15.2841 0.000411195 12.8549C0.000411195 12.2926 0.290878 12.0002 0.849901 12.0002C2.28721 11.9996 3.72452 11.999 5.16246 12.0002C5.70208 12.0009 5.99943 12.3001 6.00005 12.8436C6.00068 14.0701 6.00005 15.2966 6.00005 16.5232Z" fill="#FF0000"/>
</svg>
