<svg width="19" height="19" viewBox="0 0 19 19" fill="none" xmlns="http://www.w3.org/2000/svg">
<path d="M0 8.44444H8.44444V0H0V8.44444ZM2.11111 2.11111H6.33333V6.33333H2.11111V2.11111ZM0 19H8.44444V10.5556H0V19ZM2.11111 12.6667H6.33333V16.8889H2.11111V12.6667ZM10.5556 0V8.44444H19V0H10.5556ZM16.8889 6.33333H12.6667V2.11111H16.8889V6.33333ZM16.8889 16.8889H19V19H16.8889V16.8889ZM10.5556 10.5556H12.6667V12.6667H10.5556V10.5556ZM12.6667 12.6667H14.7778V14.7778H12.6667V12.6667ZM10.5556 14.7778H12.6667V16.8889H10.5556V14.7778ZM12.6667 16.8889H14.7778V19H12.6667V16.8889ZM14.7778 14.7778H16.8889V16.8889H14.7778V14.7778ZM14.7778 10.5556H16.8889V12.6667H14.7778V10.5556ZM16.8889 12.6667H19V14.7778H16.8889V12.6667Z" fill="#FFDBDB"/>
</svg>
