<svg width="15" height="18" viewBox="0 0 15 18" fill="none" xmlns="http://www.w3.org/2000/svg">
<path d="M7.61103 13.6667C7.16163 13.6667 6.73065 13.4881 6.41288 13.1704C6.09511 12.8526 5.91658 12.4216 5.91658 11.9722C5.91658 11.0318 6.67061 10.2778 7.61103 10.2778C8.06042 10.2778 8.49141 10.4563 8.80918 10.7741C9.12695 11.0918 9.30547 11.5228 9.30547 11.9722C9.30547 12.4216 9.12695 12.8526 8.80918 13.1704C8.49141 13.4881 8.06042 13.6667 7.61103 13.6667ZM12.6944 16.2083V7.73611H2.5277V16.2083H12.6944ZM12.6944 6.04167C13.1438 6.04167 13.5747 6.22019 13.8925 6.53796C14.2103 6.85573 14.3888 7.28672 14.3888 7.73611V16.2083C14.3888 16.6577 14.2103 17.0887 13.8925 17.4065C13.5747 17.7243 13.1438 17.9028 12.6944 17.9028H2.5277C2.0783 17.9028 1.64731 17.7243 1.32954 17.4065C1.01177 17.0887 0.833252 16.6577 0.833252 16.2083V7.73611C0.833252 6.7957 1.58728 6.04167 2.5277 6.04167H3.37492V4.34723C3.37492 3.22374 3.82122 2.14627 4.61565 1.35184C5.41007 0.557418 6.48754 0.111115 7.61103 0.111115C8.16732 0.111115 8.71817 0.220685 9.23212 0.433569C9.74607 0.646454 10.2131 0.958483 10.6064 1.35184C10.9998 1.7452 11.3118 2.21219 11.5247 2.72614C11.7376 3.24008 11.8471 3.79093 11.8471 4.34723V6.04167H12.6944ZM7.61103 1.80556C6.93694 1.80556 6.29045 2.07334 5.8138 2.55C5.33714 3.02665 5.06936 3.67313 5.06936 4.34723V6.04167H10.1527V4.34723C10.1527 3.67313 9.88491 3.02665 9.40826 2.55C8.9316 2.07334 8.28512 1.80556 7.61103 1.80556Z" fill="#FFECEC" fill-opacity="0.6"/>
</svg>
