<svg width="18" height="18" viewBox="0 0 18 18" fill="none" xmlns="http://www.w3.org/2000/svg">
<path d="M6 4C6 3.20435 6.31607 2.44129 6.87868 1.87868C7.44129 1.31607 8.20435 1 9 1C9.79565 1 10.5587 1.31607 11.1213 1.87868C11.6839 2.44129 12 3.20435 12 4C12 4.79565 11.6839 5.55871 11.1213 6.12132C10.5587 6.68393 9.79565 7 9 7C8.20435 7 7.44129 6.68393 6.87868 6.12132C6.31607 5.55871 6 4.79565 6 4ZM2.17157 12.1716C2.92172 11.4214 3.93913 11 5 11H13C14.0609 11 15.0783 11.4214 15.8284 12.1716C16.5786 12.9217 17 13.9391 17 15C17 15.5304 16.7893 16.0391 16.4142 16.4142C16.0391 16.7893 15.5304 17 15 17H3C2.46957 17 1.96086 16.7893 1.58579 16.4142C1.21071 16.0391 1 15.5304 1 15C1 13.9391 1.42143 12.9217 2.17157 12.1716Z" stroke="white" stroke-width="2"/>
</svg>
